<svg width="16" height="16" viewBox="0 0 16 16" fill="none" xmlns="http://www.w3.org/2000/svg">
<path d="M1 4.15789V13.7895C1 14.3757 1.2151 14.938 1.59799 15.3526C1.98088 15.7671 2.50018 16 3.04167 16H12.9583C13.4998 16 14.0191 15.7671 14.402 15.3526C14.7849 14.938 15 14.3757 15 13.7895V4.15789C15 4.11602 14.9846 4.07586 14.9573 4.04625C14.9299 4.01664 14.8928 4 14.8542 4H1.14583C1.10716 4 1.07006 4.01664 1.04271 4.04625C1.01536 4.07586 1 4.11602 1 4.15789ZM10.7344 10.1433L8.41234 12.657C8.30296 12.7753 8.15464 12.8418 8 12.8418C7.84536 12.8418 7.69704 12.7753 7.58766 12.657L5.26562 10.1433C5.04359 9.90289 5.02318 9.51171 5.23463 9.25987C5.28772 9.19656 5.35212 9.14558 5.42394 9.11001C5.49576 9.07445 5.5735 9.05505 5.65245 9.05298C5.7314 9.05092 5.80992 9.06623 5.88324 9.09799C5.95656 9.12975 6.02316 9.1773 6.07901 9.23776L7.41667 10.6857V6.54408C7.41667 6.20421 7.65802 5.9125 7.97193 5.89553C8.0508 5.89141 8.12962 5.90468 8.20362 5.93452C8.27762 5.96436 8.34525 6.01016 8.40241 6.06914C8.45958 6.12812 8.50509 6.19905 8.53619 6.27763C8.56729 6.35622 8.58333 6.44082 8.58333 6.52632V10.6857L9.92099 9.23776C9.97684 9.1773 10.0434 9.12975 10.1168 9.09799C10.1901 9.06623 10.2686 9.05092 10.3476 9.05298C10.4265 9.05505 10.5042 9.07445 10.5761 9.11001C10.6479 9.14558 10.7123 9.19656 10.7654 9.25987C10.9768 9.51132 10.9564 9.90289 10.7344 10.1433Z" fill="#888888"/>
<path d="M14.8571 1H1.14286C0.511675 1 0 1.35817 0 1.8V2.2C0 2.64183 0.511675 3 1.14286 3H14.8571C15.4883 3 16 2.64183 16 2.2V1.8C16 1.35817 15.4883 1 14.8571 1Z" fill="#888888"/>
</svg>
