<svg width="17" height="17" viewBox="0 0 17 17" fill="none" xmlns="http://www.w3.org/2000/svg">
<path d="M12.0425 0.640808L10.4355 2.24784L14.7519 6.56424L16.3589 4.95721C17.189 4.12714 17.189 2.78241 16.3589 1.95233L15.0507 0.640808C14.2207 -0.18927 12.8759 -0.18927 12.0459 0.640808H12.0425ZM9.68512 2.99823L1.94547 10.7412C1.60016 11.0865 1.34782 11.5148 1.20836 11.983L0.032973 15.9773C-0.0500348 16.2596 0.0263324 16.5617 0.232192 16.7676C0.438051 16.9734 0.7402 17.0498 1.01911 16.9701L5.01344 15.7947C5.48161 15.6553 5.90993 15.4029 6.25524 15.0576L14.0015 7.31464L9.68512 2.99823Z" fill="#04006C"/>
</svg>
