<svg width="19" height="16" viewBox="0 0 19 16" fill="none" xmlns="http://www.w3.org/2000/svg">
<g clip-path="url(#clip0_227_5678)">
<path d="M9.19993 1C6.61882 1 4.55202 2.15 3.04743 3.51875C1.55243 4.875 0.552573 6.5 0.0797949 7.61562C-0.0256217 7.8625 -0.0256217 8.1375 0.0797949 8.38437C0.552573 9.5 1.55243 11.125 3.04743 12.4812C4.55202 13.85 6.61882 15 9.19993 15C11.781 15 13.8479 13.85 15.3524 12.4812C16.8474 11.1219 17.8473 9.5 18.3233 8.38437C18.4287 8.1375 18.4287 7.8625 18.3233 7.61562C17.8473 6.5 16.8474 4.875 15.3524 3.51875C13.8479 2.15 11.781 1 9.19993 1ZM4.59993 8C4.59993 6.80653 5.08458 5.66193 5.94724 4.81802C6.80991 3.97411 7.97994 3.5 9.19993 3.5C10.4199 3.5 11.59 3.97411 12.4526 4.81802C13.3153 5.66193 13.7999 6.80653 13.7999 8C13.7999 9.19347 13.3153 10.3381 12.4526 11.182C11.59 12.0259 10.4199 12.5 9.19993 12.5C7.97994 12.5 6.80991 12.0259 5.94724 11.182C5.08458 10.3381 4.59993 9.19347 4.59993 8ZM9.19993 6C9.19993 7.10313 8.28313 8 7.15549 8C6.92868 8 6.71146 7.9625 6.50702 7.89687C6.33132 7.84062 6.12688 7.94688 6.13327 8.12813C6.14285 8.34375 6.1748 8.55937 6.23549 8.775C6.67313 10.375 8.3566 11.325 9.99216 10.8969C11.6277 10.4688 12.5988 8.82188 12.1612 7.22188C11.8066 5.925 10.6342 5.05312 9.33091 5C9.14563 4.99375 9.03702 5.19062 9.09452 5.36562C9.1616 5.56562 9.19993 5.77812 9.19993 6Z" fill="#555555"/>
</g>
<defs>
<clipPath id="clip0_227_5678">
<rect width="18.4" height="16" fill="white"/>
</clipPath>
</defs>
</svg>
