<svg width="15" height="20" viewBox="0 0 15 20" fill="none" xmlns="http://www.w3.org/2000/svg">
<g clip-path="url(#clip0_223_5142)">
<path d="M2.5 0C1.12109 0 0 1.12109 0 2.5V17.5C0 18.8789 1.12109 20 2.5 20H12.5C13.8789 20 15 18.8789 15 17.5V6.25H10C9.30859 6.25 8.75 5.69141 8.75 5V0H2.5ZM10 0V5H15L10 0ZM8.4375 9.0625V13.0508L9.64844 11.8398C10.0156 11.4727 10.6094 11.4727 10.9727 11.8398C11.3359 12.207 11.3398 12.8008 10.9727 13.1641L8.16016 15.9766C7.79297 16.3438 7.19922 16.3438 6.83594 15.9766L4.02344 13.1641C3.65625 12.7969 3.65625 12.2031 4.02344 11.8398C4.39062 11.4766 4.98437 11.4727 5.34766 11.8398L6.55859 13.0508V9.0625C6.55859 8.54297 6.97656 8.125 7.49609 8.125C8.01562 8.125 8.43359 8.54297 8.43359 9.0625H8.4375Z" fill="#04006C"/>
</g>
<defs>
<clipPath id="clip0_223_5142">
<rect width="15" height="20" fill="white"/>
</clipPath>
</defs>
</svg>
