<svg width="22" height="20" viewBox="0 0 22 20" fill="none" xmlns="http://www.w3.org/2000/svg">
<g clip-path="url(#clip0_194_1722)">
<path d="M21.9924 9.98047C21.9924 10.6836 21.4194 11.2344 20.7701 11.2344H19.5479L19.5747 17.4922C19.5747 17.5977 19.567 17.7031 19.5556 17.8086V18.4375C19.5556 19.3008 18.8719 20 18.0278 20H17.4167C17.3747 20 17.3326 20 17.2906 19.9961C17.2372 20 17.1837 20 17.1302 20H15.8889H14.9722C14.1281 20 13.4444 19.3008 13.4444 18.4375V17.5V15C13.4444 14.3086 12.8983 13.75 12.2222 13.75H9.77778C9.10174 13.75 8.55556 14.3086 8.55556 15V17.5V18.4375C8.55556 19.3008 7.87187 20 7.02778 20H6.11111H4.89271C4.83542 20 4.77812 19.9961 4.72083 19.9922C4.675 19.9961 4.62917 20 4.58333 20H3.97222C3.12812 20 2.44444 19.3008 2.44444 18.4375V14.0625C2.44444 14.0273 2.44444 13.9883 2.44826 13.9531V11.2344H1.22222C0.534722 11.2344 0 10.6875 0 9.98047C0 9.62891 0.114583 9.31641 0.381944 9.04297L10.175 0.3125C10.4424 0.0390625 10.7479 0 11.0153 0C11.2826 0 11.5882 0.078125 11.8174 0.273438L21.5722 9.04297C21.8778 9.31641 22.0306 9.62891 21.9924 9.98047Z" fill="#00E0FF"/>
</g>
<defs>
<clipPath id="clip0_194_1722">
<rect width="22" height="20" fill="white"/>
</clipPath>
</defs>
</svg>
