<svg width="32" height="27" viewBox="0 0 32 27" fill="none" xmlns="http://www.w3.org/2000/svg">
<path d="M1.875 9.5C0.839844 9.5 0 10.3398 0 11.375C0 11.9648 0.277344 12.5195 0.75 12.875L9.25 19.25C9.69531 19.582 10.3047 19.582 10.75 19.25L19.25 12.875C19.7227 12.5195 20 11.9648 20 11.375C20 10.3398 19.1602 9.5 18.125 9.5H1.875ZM0 13.875V22C0 23.3789 1.12109 24.5 2.5 24.5H17.5C18.8789 24.5 20 23.3789 20 22V13.875L11.5 20.25C10.6094 20.918 9.39062 20.918 8.5 20.25L0 13.875Z" fill="#888888"/>
<g clip-path="url(#clip0_186_143)">
<rect x="16" y="2" width="14" height="14" rx="7" fill="#EE4F4C"/>
<path d="M24.33 5.7V13H22.91V7.39C22.6 8.14 21.99 8.65 21.19 8.65H21.08V7.23H21.13C22.39 7.23 23.01 6.67 23.02 5.7H24.33Z" fill="white"/>
</g>
<rect x="15" y="1" width="16" height="16" rx="8" stroke="white" stroke-width="2"/>
<defs>
<clipPath id="clip0_186_143">
<rect x="16" y="2" width="14" height="14" rx="7" fill="white"/>
</clipPath>
</defs>
</svg>
