<svg width="16" height="14" viewBox="0 0 16 14" fill="none" xmlns="http://www.w3.org/2000/svg">
<path fill-rule="evenodd" clip-rule="evenodd" d="M0.125 11.5132V0.677632C0.125 0.630521 0.142285 0.585339 0.173053 0.552027C0.20382 0.518715 0.24555 0.5 0.289062 0.5H15.7109C15.7544 0.5 15.7962 0.518715 15.8269 0.552027C15.8577 0.585339 15.875 0.630521 15.875 0.677632V11.5132C15.875 12.1727 15.633 12.8052 15.2023 13.2716C14.7715 13.738 14.1873 14 13.5781 14H2.42187C1.81271 14 1.22849 13.738 0.797739 13.2716C0.366992 12.8052 0.125 12.1727 0.125 11.5132ZM10.6474 5.69853L8.32534 3.18484C8.21596 3.06649 8.06764 3 7.913 3C7.75836 3 7.61004 3.06649 7.50065 3.18484L5.17862 5.69853C4.95659 5.93892 4.93618 6.33011 5.14763 6.58195C5.20072 6.64526 5.26512 6.69624 5.33694 6.7318C5.40876 6.76736 5.4865 6.78677 5.56545 6.78883C5.6444 6.7909 5.72292 6.77559 5.79624 6.74383C5.86956 6.71206 5.93616 6.66451 5.99201 6.60405L7.32967 5.15616V9.29774C7.32967 9.63761 7.57102 9.92932 7.88493 9.94629C7.9638 9.9504 8.04262 9.93714 8.11662 9.9073C8.19061 9.87745 8.25825 9.83165 8.31541 9.77268C8.37258 9.7137 8.41809 9.64277 8.44919 9.56418C8.48029 9.4856 8.49632 9.401 8.49633 9.3155V5.15616L9.83399 6.60405C9.88983 6.66451 9.95644 6.71206 10.0298 6.74383C10.1031 6.77559 10.1816 6.7909 10.2605 6.78883C10.3395 6.78677 10.4172 6.76736 10.4891 6.7318C10.5609 6.69624 10.6253 6.64526 10.6784 6.58195C10.8898 6.3305 10.8694 5.93892 10.6474 5.69853Z" fill="#04006C"/>
</svg>
