<svg width="20" height="20" viewBox="0 0 20 20" fill="none" xmlns="http://www.w3.org/2000/svg">
<path d="M19.0742 3.82422C19.8066 3.0918 19.8066 1.90234 19.0742 1.16992C18.3418 0.4375 17.1523 0.4375 16.4199 1.16992L10.25 7.3457L4.07422 1.17578C3.3418 0.443359 2.15234 0.443359 1.41992 1.17578C0.6875 1.9082 0.6875 3.09766 1.41992 3.83008L7.5957 10L1.42578 16.1758C0.69336 16.9082 0.69336 18.0977 1.42578 18.8301C2.1582 19.5625 3.34766 19.5625 4.08008 18.8301L10.25 12.6543L16.4258 18.8242C17.1582 19.5566 18.3477 19.5566 19.0801 18.8242C19.8125 18.0918 19.8125 16.9023 19.0801 16.1699L12.9043 10L19.0742 3.82422Z" fill="#AAAAAA"/>
</svg>
