<svg width="40" height="40" viewBox="0 0 40 40" fill="none" xmlns="http://www.w3.org/2000/svg">
<rect width="40" height="40" rx="20" fill="#04006C"/>
<path d="M33.1012 15.525C32.9113 16.8891 32.2705 21.3883 28.9951 25.7918C25.6724 30.3389 21.329 32.5407 19.9999 33.2108C18.6945 32.5407 14.3274 30.3389 11.0046 25.7918C7.75306 21.4123 7.11224 16.913 6.92236 15.525L8.8923 14.448V12.9643L10.8622 11.8873V10.4035C13.5679 9.08726 16.5584 8.24964 19.9999 7.771C23.4413 8.22571 26.4319 9.08726 29.1375 10.4035V11.8873L31.1075 12.9643V14.448L33.1012 15.525Z" fill="url(#paint0_linear_197_2796)"/>
<path d="M32.8877 13.395V11.9112L30.9177 10.8343V9.27869L29.9209 8.80005C27.0491 7.43592 23.8924 6.5265 20.2373 6.02393L20 6L19.7627 6.02393C16.1313 6.5265 12.9509 7.43592 10.1028 8.82398L9.10601 9.30262V10.8582L7.13608 11.9112V13.395L5 14.5437L5.16614 15.7643C5.73576 19.8806 7.23101 23.614 9.60443 26.8448C12.0016 30.1235 15.2294 32.8039 19.2168 34.8142L20 35.221L20.7832 34.8142C24.7706 32.8039 27.9984 30.1235 30.3956 26.8448C32.769 23.614 34.2642 19.8806 34.8339 15.7643L35 14.5437L32.8877 13.395ZM33.1013 15.525C32.9114 16.8891 32.2706 21.3883 28.9953 25.7918C25.6725 30.3389 21.3291 32.5406 20 33.2107C18.6946 32.5406 14.3275 30.3389 11.0047 25.7918C7.75316 21.4122 7.11234 16.913 6.92247 15.525L8.89241 14.448V12.9642L10.8623 11.8873V10.4035C13.568 9.08723 16.5585 8.24961 20 7.77097C23.4415 8.22568 26.432 9.08723 29.1377 10.4035V11.8873L31.1076 12.9642V14.448L33.1013 15.525Z" fill="#FFC200"/>
<path d="M17.0807 11.3608L17.1757 23.4464L17.0807 23.4943C15.8228 20.2635 15.0633 16.2429 14.826 12.1984C14.2089 12.4856 13.5443 12.8206 12.856 13.2514C13.1409 16.913 13.7579 20.1199 14.8734 23.1832L14.2326 23.5422C12.5475 21.1729 11.4557 18.301 10.72 14.8788C10.1978 15.3574 9.6994 15.8839 9.17725 16.4583C10.1503 20.5507 11.7168 23.6618 13.9715 26.1747L15.7041 25.1217C16.5586 26.9166 17.7453 28.6876 19.0744 30.0995V11.0018C18.4098 11.0736 17.7453 11.1932 17.0807 11.3608Z" fill="#FFC200"/>
<path d="M28.2832 17.607C28.9952 16.8173 29.1376 16.2429 29.1376 15.5489C29.1376 14.5676 28.3307 13.6822 27.1439 12.9163C26.4319 12.4616 25.3401 11.9112 23.75 11.4565C22.8481 11.2172 21.875 11.0496 20.9019 11.0257V30.1474C24.8892 28.0892 29.6123 22.4173 29.636 19.5216C29.6835 18.6361 29.2326 18.0617 28.2832 17.607ZM22.8955 13.2992C23.8686 13.2992 27.049 14.3044 27.049 15.5967C27.049 16.0514 26.6455 16.7215 25.3876 17.3916L22.8955 18.7318V13.2992ZM25.3639 23.9011C24.7943 24.5473 23.8924 25.5524 22.8955 26.3183V20.8378C22.8955 20.8378 26.5031 18.8036 26.6218 18.7079C27.6898 18.9951 27.6424 19.7848 27.6424 19.8566C27.6424 20.8618 26.6218 22.4173 25.3639 23.9011Z" fill="#FFC200"/>
<defs>
<linearGradient id="paint0_linear_197_2796" x1="6.9194" y1="20.5152" x2="33.0919" y2="20.5152" gradientUnits="userSpaceOnUse">
<stop stop-color="#4047FF"/>
<stop offset="1" stop-color="#04006C"/>
</linearGradient>
</defs>
</svg>
