<svg width="245" height="50" viewBox="0 0 245 50" fill="none" xmlns="http://www.w3.org/2000/svg">
<path d="M67.8424 24.1605L60.3724 5.77396H63.8829L68.1689 16.7486L72.8632 5.28256L77.5167 16.7486L81.7619 5.77396H85.15L77.6799 24.1605L72.7408 12.326L67.8424 24.1605Z" fill="white"/>
<path d="M101.233 23.4644H97.8041L96.008 19.656H88.4972L86.7011 23.4644H83.2722L92.2526 5.07782L101.233 23.4644ZM89.7218 17.1171H94.865L92.2526 11.6708L89.7218 17.1171Z" fill="white"/>
<path d="M106.784 23.4644H103.519V5.77396H108.499C112.377 5.77396 115.152 7.78051 115.152 11.2613C115.152 13.6773 113.805 15.3153 111.683 16.0934L117.153 23.4644H113.356L108.295 16.6257H106.744V23.4644H106.784ZM106.784 14.0049H108.499C110.499 14.0049 111.846 13.0221 111.846 11.2613C111.846 9.45946 110.499 8.47666 108.499 8.47666H106.784V14.0049Z" fill="white"/>
<path d="M157.768 23.4644H154.503V5.77396H159.483C163.361 5.77396 166.136 7.78051 166.136 11.2613C166.136 13.6773 164.789 15.3153 162.667 16.0934L168.136 23.4644H164.34L159.279 16.6257H157.727V23.4644H157.768ZM157.768 14.0049H159.483C161.483 14.0049 162.83 13.0221 162.83 11.2613C162.83 9.45946 161.483 8.47666 159.483 8.47666H157.768V14.0049Z" fill="white"/>
<path d="M132.378 5.77397H135.562V24.1196L123.153 12.1212V23.4234H119.969V5.07782L132.378 17.0762V5.77397Z" fill="white"/>
<path d="M139.808 5.77396H150.666V8.47666H142.991V13.0631H150.053V15.8067H142.991V20.7617H150.706V23.4644H139.808V5.77396Z" fill="white"/>
<path d="M176.79 5.77396H181.852C185.771 5.77396 187.852 7.61671 187.852 10.4423C187.852 12.2441 186.75 13.5545 185.403 14.1278C187.403 14.6601 188.954 16.1753 188.954 18.4275C188.954 21.5397 186.546 23.4644 182.709 23.4644H176.79V5.77396ZM181.648 13.2678C183.485 13.2678 184.628 12.4488 184.628 10.8927C184.628 9.33661 183.485 8.47666 181.648 8.47666H179.974V13.2269H181.648V13.2678ZM182.505 20.7207C184.383 20.7207 185.607 19.7379 185.607 18.1818C185.607 16.6257 184.342 15.6839 182.505 15.6839H179.974V20.7617H182.505V20.7207Z" fill="white"/>
<path d="M195.608 23.4644H192.343V5.77396H197.323C201.2 5.77396 203.976 7.78051 203.976 11.2613C203.976 13.6773 202.629 15.3153 200.507 16.0934L205.976 23.4644H202.18L197.159 16.6257H195.608V23.4644ZM195.608 14.0049H197.323C199.323 14.0049 200.67 13.0221 200.67 11.2613C200.67 9.45946 199.323 8.47666 197.323 8.47666H195.608V14.0049Z" fill="white"/>
<path d="M225.039 14.6192C225.039 19.6561 221.039 23.7511 216.018 23.7511C211.038 23.7511 206.997 19.6561 206.997 14.6192C206.997 9.58234 210.997 5.48734 216.018 5.48734C221.039 5.48734 225.039 9.58234 225.039 14.6192ZM210.303 14.6192C210.303 18.0999 212.875 20.7207 216.059 20.7207C219.243 20.7207 221.814 18.0999 221.814 14.6192C221.814 11.1384 219.243 8.51764 216.059 8.51764C212.834 8.51764 210.303 11.1384 210.303 14.6192Z" fill="white"/>
<path d="M232.672 20.9665C234.469 20.9665 235.734 20.1475 235.734 18.7142C235.734 17.5676 234.999 17.0762 233.856 16.5029L230.917 15.1106C228.999 14.2097 227.407 13.0631 227.407 10.5651C227.407 7.49389 229.897 5.48734 233.203 5.48734C235.203 5.48734 236.999 6.34729 237.938 7.24819V10.647C236.591 9.29569 234.836 8.31289 233.081 8.31289C231.611 8.31289 230.509 9.04999 230.509 10.3604C230.509 11.3432 231.203 11.8346 232.183 12.326L234.918 13.5954C237.489 14.783 238.836 16.0115 238.836 18.4685C238.836 21.7445 236.101 23.792 232.632 23.792C230.387 23.792 228.427 22.9321 227.243 22.0312V18.6732C228.795 19.9017 230.672 20.9665 232.672 20.9665Z" fill="white"/>
<path d="M245 21.5398C245 22.6864 244.102 23.5873 242.959 23.5873H242.918C241.775 23.5873 240.877 22.6864 240.877 21.5398C240.877 20.3931 241.775 19.4922 242.918 19.4922H242.959C244.102 19.5332 245 20.4341 245 21.5398Z" fill="white"/>
<path d="M173.729 47.0926H170.463V29.4431H175.443C179.321 29.4431 182.097 31.4496 182.097 34.9304C182.097 37.3464 180.75 38.9844 178.627 39.7625L184.097 47.1335H180.301L175.239 40.2948H173.688V47.0926H173.729ZM173.729 37.674H175.443C177.443 37.674 178.79 36.6912 178.79 34.9304C178.79 33.1286 177.443 32.1458 175.443 32.1458H173.729V37.674Z" fill="white"/>
<path d="M155.605 29.4431H166.463V32.1458H158.789V36.7322H165.851V39.4758H158.789V44.4308H166.544V47.1335H155.646V29.4431H155.605Z" fill="white"/>
<path d="M135.154 38.2473C135.154 43.2842 131.154 47.3792 126.133 47.3792C121.153 47.3792 117.112 43.2842 117.112 38.2473C117.112 33.2105 121.112 29.1155 126.133 29.1155C131.154 29.1564 135.154 33.2105 135.154 38.2473ZM120.377 38.2473C120.377 41.7281 122.949 44.3489 126.133 44.3489C129.317 44.3489 131.889 41.7281 131.889 38.2473C131.889 34.7666 129.317 32.1458 126.133 32.1458C122.949 32.1458 120.377 34.7666 120.377 38.2473Z" fill="white"/>
<path d="M68.0057 29.4431C73.0265 29.4431 77.0676 33.2514 77.0676 38.2883C77.0676 43.3251 73.0265 47.1335 68.0057 47.1335H62.5766V29.4431H68.0057ZM65.8422 32.1458V44.3898H67.8016C71.3529 44.3898 73.8021 41.6462 73.8021 38.2473C73.8021 34.8485 71.3529 32.1048 67.8016 32.1048H65.8422V32.1458Z" fill="white"/>
<path d="M83.6804 29.4431V47.0926H80.4149V29.4431H83.6804Z" fill="white"/>
<path d="M92.4159 44.5946C94.2119 44.5946 95.4773 43.7756 95.4773 42.3423C95.4773 41.1957 94.7426 40.7043 93.5996 40.131L90.6606 38.7387C88.7421 37.8378 87.1501 36.6912 87.1501 34.1933C87.1501 31.122 89.6809 29.1155 92.9465 29.1155C94.9467 29.1155 96.7427 29.9754 97.6816 30.8763V34.2752C96.3346 32.9238 94.5793 31.941 92.8241 31.941C91.3545 31.941 90.2524 32.6781 90.2524 33.9885C90.2524 34.9713 90.9463 35.4627 91.926 35.9541L94.6609 37.2236C97.2326 38.4111 98.5796 39.6396 98.5796 42.0966C98.5796 45.3726 95.8447 47.4201 92.375 47.4201C90.13 47.4201 88.1706 46.5602 86.9868 45.6593V42.3014C88.538 43.5299 90.4157 44.5946 92.4159 44.5946Z" fill="white"/>
<path d="M114.581 42.3833V46.1507C113.275 46.9697 111.724 47.3792 110.009 47.3792C104.988 47.3792 100.947 43.2842 100.947 38.2473C100.947 33.2105 104.988 29.1155 110.009 29.1155C111.683 29.1155 113.275 29.5659 114.581 30.344V34.1114C113.56 32.9648 111.969 32.2277 110.091 32.2277C106.744 32.2277 104.213 34.8485 104.213 38.2473C104.213 41.6462 106.784 44.267 110.091 44.267C111.969 44.267 113.56 43.5299 114.581 42.3833Z" fill="white"/>
<path d="M135.44 29.4431H139.032L144.502 41.2776L149.931 29.4431H153.401L144.42 47.8297L135.44 29.4431Z" fill="white"/>
<path d="M190.097 47.0925V39.1482L183.525 29.4021H187.199L191.73 36.1179L196.302 29.4021H199.976L193.404 39.1482V47.0925H190.097Z" fill="white"/>
<path d="M48.3306 16.2981C48.004 18.6323 46.9019 26.3309 41.2687 33.8657C35.554 41.6462 28.084 45.4136 25.7981 46.5602C23.553 45.4136 16.0421 41.6462 10.3274 33.8657C4.73509 26.3718 3.63295 18.6732 3.3064 16.2981L6.69443 14.4554V11.9165L10.0825 10.0737V7.53481C14.7359 5.28256 19.8792 3.8493 25.7981 3.0303C31.7169 3.80835 36.8602 5.28256 41.5137 7.53481V10.0737L44.9017 11.9165V14.4554L48.3306 16.2981Z" fill="url(#paint0_linear_114_392)"/>
<path d="M47.9632 12.6536V10.1147L44.5751 8.27191V5.61016L42.8607 4.79115C37.9215 2.457 32.4925 0.900901 26.2063 0.04095L25.7981 0L25.3899 0.04095C19.1445 0.900901 13.6746 2.457 8.77624 4.83211L7.06181 5.65111V8.31286L3.67378 10.1147V12.6536L0 14.6192L0.285738 16.7076C1.26541 23.751 3.83705 30.1392 7.91903 35.6675C12.0418 41.2776 17.5933 45.864 24.451 49.3039L25.7981 50L27.1451 49.3039C34.0028 45.864 39.5543 41.2776 43.6771 35.6675C47.7591 30.1392 50.3307 23.751 51.3104 16.7076L51.5961 14.6192L47.9632 12.6536ZM48.3306 16.2981C48.004 18.6323 46.9019 26.3309 41.2687 33.8657C35.554 41.6462 28.084 45.4136 25.7981 46.5602C23.553 45.4136 16.0422 41.6462 10.3274 33.8657C4.73509 26.3718 3.63296 18.6732 3.3064 16.2981L6.69444 14.4554V11.9165L10.0825 10.0737V7.53481C14.7359 5.28256 19.8792 3.8493 25.7981 3.0303C31.7169 3.80835 36.8602 5.28256 41.5137 7.53481V10.0737L44.9017 11.9165V14.4554L48.3306 16.2981Z" fill="#FFC200"/>
<path d="M20.7772 9.17281L20.9405 29.8526L20.7772 29.9345C18.6138 24.4062 17.3076 17.5266 16.8994 10.6061C15.8381 11.0975 14.6951 11.6708 13.5113 12.4079C14.0012 18.6732 15.0625 24.1605 16.981 29.4021L15.8789 30.0164C12.9807 25.9623 11.103 21.0483 9.83755 15.1925C8.93952 16.0115 8.08231 16.9124 7.18427 17.8952C8.85788 24.8976 11.552 30.2211 15.4299 34.5209L18.4097 32.7191C19.8792 35.7903 21.9202 38.8206 24.2061 41.2367V8.55856C23.0631 8.68141 21.9202 8.88616 20.7772 9.17281Z" fill="#FFC200"/>
<path d="M40.0441 19.8608C41.2687 18.5094 41.5137 17.5266 41.5137 16.3391C41.5137 14.6601 40.1258 13.145 38.0848 11.8346C36.8602 11.0565 34.9825 10.1147 32.2476 9.33662C30.6964 8.92712 29.0228 8.64047 27.3492 8.59952V41.3186C34.2069 37.7969 42.3301 28.0917 42.3709 23.1368C42.4525 21.6216 41.6769 20.6388 40.0441 19.8608ZM30.7781 12.4898C32.4517 12.4898 37.9215 14.2097 37.9215 16.421C37.9215 17.199 37.2276 18.3456 35.0641 19.4922L30.7781 21.7854V12.4898ZM35.0233 30.6306C34.0436 31.7363 32.4925 33.4562 30.7781 34.7666V25.389C30.7781 25.389 36.9827 21.9083 37.1868 21.7445C39.0237 22.2359 38.942 23.5872 38.942 23.7101C38.942 25.43 37.1868 28.0917 35.0233 30.6306Z" fill="#FFC200"/>
<defs>
<linearGradient id="paint0_linear_114_392" x1="3.30129" y1="24.8369" x2="48.3146" y2="24.8369" gradientUnits="userSpaceOnUse">
<stop stop-color="#4047FF"/>
<stop offset="1" stop-color="#04006C"/>
</linearGradient>
</defs>
</svg>
